<svg xmlns="http://www.w3.org/2000/svg" width="48" height="48"><defs><style>.cls-5{fill:#474c54}</style></defs><g id="_13-File" data-name="13-File"><path d="M47 13h-8a4 4 0 0 1-4-4V1z" style="fill:#f6b445"/><path d="M47 13v30a4 4 0 0 1-4 4H9c-4 0-4-4-4-4V5a4 4 0 0 1 4-4h26v8a4 4 0 0 0 4 4h8z" style="fill:#fed049"/><path d="M29 27h-7a3 3 0 0 1-3-3v-7z" style="fill:#d0d7df"/><path d="M29 27v17a3 3 0 0 1-3 3H4a3 3 0 0 1-3-3V20a3 3 0 0 1 3-3h15v7a3 3 0 0 0 3 3h7z" style="fill:#f1f2f2"/><path class="cls-5" d="m47.707 12.293-12-12a.975.975 0 0 0-.323-.216A.988.988 0 0 0 35 0H9a5.006 5.006 0 0 0-5 5v7a1 1 0 0 0 2 0V5a3 3 0 0 1 3-3h25v7a5.006 5.006 0 0 0 5 5h2a1 1 0 0 0 0-2h-2a3 3 0 0 1-3-3V3.414l10 10V43a3 3 0 0 1-3 3h-9a1 1 0 0 0 0 2h9a5.006 5.006 0 0 0 5-5V13a1 1 0 0 0-.293-.707z"/><path class="cls-5" d="M19.708 16.294A1.009 1.009 0 0 0 19 16H4a4 4 0 0 0-4 4v24a4 4 0 0 0 4 4h22a4 4 0 0 0 4-4V27a1 1 0 0 0-.293-.707zM28 44a2 2 0 0 1-2 2H4a2 2 0 0 1-2-2V20a2 2 0 0 1 2-2h14v6a4 4 0 0 0 4 4h1a1 1 0 0 0 0-2h-1a2 2 0 0 1-2-2v-4.586l8 8z"/><path class="cls-5" d="M20 31H8a1 1 0 0 0 0 2h12a1 1 0 0 0 0-2zM20 36H8a1 1 0 0 0 0 2h12a1 1 0 0 0 0-2zM16 41h-2a1 1 0 0 0 0 2h2a1 1 0 0 0 0-2zM10 41H8a1 1 0 0 0 0 2h2a1 1 0 0 0 0-2z"/></g></svg>